<svg width="21" height="23" viewBox="0 0 21 23" fill="none" xmlns="http://www.w3.org/2000/svg">
<path d="M10.5519 16.229C10.4211 16.2296 10.2916 16.202 10.1708 16.1477C10.05 16.0933 9.94052 16.0134 9.84864 15.9126L3.21454 8.72188C3.08222 8.51206 3.02251 8.25834 3.04594 8.00546C3.06936 7.75258 3.17443 7.51679 3.34259 7.33967C3.51076 7.16256 3.73122 7.05549 3.9651 7.03737C4.19899 7.01924 4.43126 7.09122 4.62097 7.2406L10.5519 13.6259L16.4827 7.2406C16.6698 7.10917 16.8921 7.0496 17.1141 7.07144C17.3361 7.09328 17.5448 7.19527 17.707 7.36106C17.8691 7.52685 17.9752 7.74683 18.0082 7.98576C18.0413 8.22469 17.9993 8.46872 17.8892 8.67874L11.2551 15.8694C11.1666 15.9781 11.0586 16.066 10.9377 16.1279C10.8168 16.1897 10.6855 16.2241 10.5519 16.229Z" fill="#B700DB"/>
</svg>
